# xmcd CD database file
#
# Track frame offsets:
#	150
#	24292
#	55990
#	68475
#	87750
#	101905
#	129135
#	148045
#	169522
#	183187
#	200252
#	235320
#	247290
#	257110
#	269152
#	283132
#	298877
#	331287
#
# Disc length: 4782 seconds
#
# Revision: 0
# Processed by: cddbd v1.5.1PL0 Copyright (c) Steve Scherf et al.
# Submitted via: CDex 1.51
#
DISCID=1212ac12
DTITLE=Various Artist - 秋JAZZ
DYEAR=2002
DGENRE=Jazz
TTITLE0=ファイヴ・スポット・アフター・ダーク（カーティス・フラー）
TTITLE1=枯葉（ブッカー・アービン）
TTITLE2=ノスタルジア（ファッツ・ナバロ）
TTITLE3=アーリー・オータム（アル・カイオラ）
TTITLE4=オール・オブ・ミー（ミルドレッド・ベイリー）
TTITLE5=オーバー・ザ・レインボー（フランク・ウェス）
TTITLE6=ナイト・アンド・デイ（レッド・ノーヴォ）
TTITLE7=ニューヨークの秋（カーティス・フラー）
TTITLE8=今宵の君は（アニー・ロス）
TTITLE9=恋に落ちたら（ハンク・モブレイ）
TTITLE10=ウェスト42ndストリート（ジョン・コルトレーン）
TTITLE11=マイルストーンズ（マイルス・デイビス）
TTITLE12=オール・オア・ナッシング・アット・オール（ジミー・スコット）
TTITLE13=バルバドス（チャーリー・パーカー）
TTITLE14=スターダスト（ディジー・ガレスピー）
TTITLE15=タイム・タイム（アート・ペッパー）
TTITLE16=アイ・ウォント・トゥ・トーク・アバウト・ユー（アキコ・グレース＆ジョージ・ガゾーン）
TTITLE17=ボヘミア・アフター・ダーク（キャノンボール・アダレイ）
EXTD=YEAR: 2002
EXTT0=
EXTT1=
EXTT2=
EXTT3=
EXTT4=
EXTT5=
EXTT6=
EXTT7=
EXTT8=
EXTT9=
EXTT10=
EXTT11=
EXTT12=
EXTT13=
EXTT14=
EXTT15=
EXTT16=
EXTT17=
PLAYORDER=
